<?xml version="1.0" encoding="utf-8"?>
<!-- Generator: Adobe Illustrator 24.1.1, SVG Export Plug-In . SVG Version: 6.00 Build 0)  -->
<svg version="1.1" id="Layer_1" xmlns="http://www.w3.org/2000/svg" xmlns:xlink="http://www.w3.org/1999/xlink" x="0px" y="0px"
	 viewBox="0 0 1346 237" style="enable-background:new 0 0 1346 237;" xml:space="preserve">
<style type="text/css">
	.st0{fill:#FFFFFF;}
	.st1{fill:#00C7BE;}
	.st2{fill:#A50404;}
</style>
<path class="st0" d="M196.37,56.29c-0.14-4.11-3.69-6.83-8.98-6.83h-17.54c-5.4,0-8.99,2.83-8.99,7.07V74.1
	C172.11,67.57,184.45,62.13,196.37,56.29z"/>
<path class="st0" d="M187.42,70.12c-8.54,4.1-18.05,8.61-26.56,13.93v85.6c0,4.24,3.6,7.07,8.99,7.07h17.54
	c5.4,0,8.99-2.83,8.99-7.07V65.76C193.4,67.23,190.41,68.68,187.42,70.12z"/>
<path class="st0" d="M1059.37,58.29c-0.14-4.11-3.69-6.83-8.98-6.83h-17.54c-5.4,0-8.99,2.83-8.99,7.07V76.1
	C1035.11,69.57,1047.45,64.13,1059.37,58.29z"/>
<path class="st0" d="M1050.42,72.12c-8.54,4.1-18.05,8.61-26.56,13.93v85.6c0,4.24,3.6,7.07,8.99,7.07h17.54
	c5.4,0,8.99-2.83,8.99-7.07V67.76C1056.4,69.23,1053.41,70.68,1050.42,72.12z"/>
<path class="st0" d="M338.01,166.37c0,5.4-3.6,8.99-8.99,8.99h-15.29c-5.4,0-8.99-3.6-8.99-8.99V97.58
	c0-13.94-4.5-20.68-22.93-20.68h-20.68v89.47c0,5.4-3.6,8.99-8.99,8.99h-15.29c-5.4,0-8.99-3.6-8.99-8.99V59.81
	c0-5.4,3.6-8.99,8.99-8.99h47.43c36.64,0,53.73,11.02,53.73,48.78V166.37z"/>
<path class="st0" d="M474.91,112.53c0,5.4-3.6,8.99-8.99,8.99h-71.04v1.35c0,19.11,5.62,29.45,22.71,29.45
	c14.16,0,18.88-5.84,21.58-12.81c1.12-2.92,3.15-4.27,6.07-4.27h20.01c5.62,0,8.77,3.6,7.19,8.77
	c-7.19,25.18-28.33,34.17-54.4,34.17c-32.15,0-56.43-13.49-56.43-54.4v-21.36c0-40.92,24.28-54.4,56.43-54.4s56.88,13.49,56.88,54.4
	V112.53z M441.64,100.39c0-17.08-6.74-26.53-23.6-26.53c-17.31,0-22.48,9.67-23.16,26.53H441.64z"/>
<path class="st1" d="M577.86,102.63l25.2-41.24c4.27-6.29,1.57-10.57-5.85-10.57h-19.33c-4.27,0-8.09,2.25-10.12,5.85l-10.57,18.11
	C563.83,84.24,570.76,93.5,577.86,102.63z"/>
<path class="st0" d="M605.3,164.79c3.82,6.29,1.35,10.57-6.07,10.57h-19.56c-3.01,0-5.79-1.14-7.88-3.06
	c-0.83-1.08-1.66-2.17-2.49-3.25L492.9,61.38c-3.82-6.29-1.57-10.57,5.84-10.57h19.56c4.27,0,8.09,2.25,10.12,5.85L551,89.1"/>
<path class="st2" d="M518.05,120.55l-26.73,44.24c-3.82,6.29-1.35,10.57,6.07,10.57h19.56c4.27,0,8.09-2.25,10.12-5.84l12.44-21.87
	C532.32,138.64,525.14,129.64,518.05,120.55z"/>
<g>
	<path class="st0" d="M14.11,178.13V10.41h65.13c17.45,0,30.93,3.96,40.42,11.88c9.49,7.92,14.24,18.33,14.24,31.24
		c0,9.68-2.62,17.67-7.85,23.98s-12.33,10.62-21.27,12.95v0.23c9.89,0.9,18.22,4.84,24.98,11.82c6.76,6.98,10.15,16.44,10.15,28.37
		c0,14.03-4.87,25.42-14.62,34.16c-9.75,8.74-23.85,13.11-42.33,13.11H14.11z M46.94,80.08h29.78c7.42,0,13.24-1.91,17.45-5.74
		c4.22-3.83,6.33-8.97,6.33-15.42c0-6.53-2.11-11.71-6.33-15.53c-4.22-3.83-10.04-5.74-17.45-5.74H46.94V80.08z M46.94,150.89h31.31
		c8.65,0,15.38-1.91,20.18-5.74c4.8-3.83,7.2-9.23,7.2-16.21c0-6.98-2.36-12.51-7.09-16.6c-4.73-4.09-11.31-6.14-19.75-6.14H46.94
		V150.89z"/>
</g>
<path class="st0" d="M775.7,126.65c0,41.67-25.19,55.41-57.93,55.41s-57.47-13.74-57.47-55.41V104.9
	c0-41.67,24.73-55.41,57.47-55.41s57.93,13.74,57.93,55.41V126.65z M741.81,105.13c0-19.46-6.64-29.31-24.04-29.31
	s-23.58,9.85-23.58,29.31v21.29c0,19.46,6.18,29.31,23.58,29.31s24.04-9.84,24.04-29.31V105.13z"/>
<path class="st0" d="M834.77,218.69c0,5.5-3.66,9.16-9.16,9.16h-15.57c-5.5,0-9.16-3.66-9.16-9.16V61.4c0-5.5,3.66-9.16,9.16-9.16
	h52.2c26.33,0,52.43,12.36,52.43,55.41v16.26c0,43.04-26.1,55.18-52.43,55.18h-27.47V218.69z M880.79,108.11
	c0-19.46-6.64-29.31-24.04-29.31h-21.98v73.95h21.98c17.4,0,24.04-9.85,24.04-29.31V108.11z"/>
<path class="st0" d="M1006.94,69.64c0,5.5-3.66,9.16-9.16,9.16h-14.2v91.13c0,5.5-3.66,9.16-9.16,9.16h-15.57
	c-5.5,0-9.16-3.66-9.16-9.16V78.8h-12.13c-5.5,0-9.16-3.66-9.16-9.16V61.4c0-5.5,3.66-9.16,9.16-9.16h12.13V36.21
	c0-17.4,5.5-21.98,23.13-21.98h1.6c5.5,0,9.16,3.66,9.16,9.16v28.85h14.2c5.5,0,9.16,3.66,9.16,9.16V69.64z"/>
<path class="st0" d="M1197.44,126.65c0,41.67-25.19,55.41-57.93,55.41s-57.47-13.74-57.47-55.41V104.9
	c0-41.67,24.73-55.41,57.47-55.41s57.93,13.74,57.93,55.41V126.65z M1163.55,105.13c0-19.46-6.64-29.31-24.04-29.31
	c-17.4,0-23.58,9.85-23.58,29.31v21.29c0,19.46,6.18,29.31,23.58,29.31c17.4,0,24.04-9.84,24.04-29.31V105.13z"/>
<path class="st0" d="M1334.81,169.93c0,5.5-3.66,9.16-9.16,9.16h-15.57c-5.5,0-9.16-3.66-9.16-9.16V99.86
	c0-14.2-4.58-21.06-23.35-21.06h-21.06v91.13c0,5.5-3.66,9.16-9.16,9.16h-15.57c-5.5,0-9.16-3.66-9.16-9.16V61.4
	c0-5.5,3.66-9.16,9.16-9.16h48.31c37.32,0,54.72,11.22,54.72,49.68V169.93z"/>
</svg>
